<svg xmlns="http://www.w3.org/2000/svg"  viewBox="0 0 48 48" width="90px" height="90px" baseProfile="basic"><linearGradient id="tGu8KJd--A0DMORAhAxAaa" x1="23.5" x2="23.5" y1="-19.32" y2="32.362" gradientUnits="userSpaceOnUse"><stop offset="0" stop-color="#262626" stop-opacity="0"/><stop offset="1" stop-color="#262626" stop-opacity=".8"/></linearGradient><path fill="url(#tGu8KJd--A0DMORAhAxAaa)" d="M22,11c-1.862,0-3.413,1.278-3.859,3H18c-2.209,0-4,2.047-4,4.571V29c3.866,0,7-3.582,7-8v-3	h5c3.866,0,7-3.134,7-7H22z"/><linearGradient id="tGu8KJd--A0DMORAhAxAab" x1="21.975" x2="30.003" y1="24.479" y2="19.844" gradientUnits="userSpaceOnUse"><stop offset="0" stop-color="#262626" stop-opacity="0"/><stop offset="1" stop-color="#262626" stop-opacity=".8"/></linearGradient><path fill="url(#tGu8KJd--A0DMORAhAxAab)" d="M27,23L27,23c-1.105,0-2-0.895-2-2v0h4v0C29,22.105,28.105,23,27,23z"/><linearGradient id="tGu8KJd--A0DMORAhAxAac" x1="2.431" x2="79.238" y1="2.429" y2="79.236" gradientUnits="userSpaceOnUse"><stop offset="0" stop-color="#262626" stop-opacity="0"/><stop offset="1" stop-color="#262626" stop-opacity=".8"/></linearGradient><path fill="url(#tGu8KJd--A0DMORAhAxAac)" d="M24,3C12.397,3,3,12.408,3,24c0,11.592,9.408,21,21,21s21-9.408,21-21	C45,12.398,35.592,3,24,3z"/><linearGradient id="tGu8KJd--A0DMORAhAxAad" x1="18.913" x2="39.237" y1="19.607" y2="31.341" gradientUnits="userSpaceOnUse"><stop offset="0" stop-color="#262626" stop-opacity="0"/><stop offset="1" stop-color="#262626" stop-opacity=".8"/></linearGradient><path fill="url(#tGu8KJd--A0DMORAhAxAad)" d="M33.42,25.84C33.69,26.37,33.3,27,32.71,27H31v5h-7c-2.9,0-5.45-1.55-6.85-3.86	C19.43,26.83,21,24.13,21,21v-3h5c1.96,0,3.74-0.81,5-2.11V21L33.42,25.84z"/><linearGradient id="tGu8KJd--A0DMORAhAxAae" x1=".296" x2="51.134" y1="52.435" y2="23.084" gradientUnits="userSpaceOnUse"><stop offset="0" stop-color="#262626" stop-opacity="0"/><stop offset="1" stop-color="#262626" stop-opacity=".8"/></linearGradient><path fill="url(#tGu8KJd--A0DMORAhAxAae)" d="M39.12,38.57C35.3,42.53,29.93,45,24,45s-11.3-2.47-15.12-6.43C10.89,36.38,13.78,35,17,35h14	C34.22,35,37.11,36.38,39.12,38.57z"/></svg>